<svg id="visual" viewBox="0 0 960 540" width="960" height="540" xmlns="http://www.w3.org/2000/svg" xmlns:xlink="http://www.w3.org/1999/xlink" version="1.1"><rect x="0" y="0" width="960" height="540" fill="#000"></rect><path d="M0 444L22.8 445.2C45.7 446.3 91.3 448.7 137 448.8C182.7 449 228.3 447 274 446.3C319.7 445.7 365.3 446.3 411.2 439.5C457 432.7 503 418.3 548.8 416.3C594.7 414.3 640.3 424.7 686 428.7C731.7 432.7 777.3 430.3 823 430.8C868.7 431.3 914.3 434.7 937.2 436.3L960 438L960 541L937.2 541C914.3 541 868.7 541 823 541C777.3 541 731.7 541 686 541C640.3 541 594.7 541 548.8 541C503 541 457 541 411.2 541C365.3 541 319.7 541 274 541C228.3 541 182.7 541 137 541C91.3 541 45.7 541 22.8 541L0 541Z" fill="#a2bd22"></path><path d="M0 440L22.8 438.2C45.7 436.3 91.3 432.7 137 436.8C182.7 441 228.3 453 274 454.7C319.7 456.3 365.3 447.7 411.2 448.3C457 449 503 459 548.8 462.2C594.7 465.3 640.3 461.7 686 459.8C731.7 458 777.3 458 823 454.7C868.7 451.3 914.3 444.7 937.2 441.3L960 438L960 541L937.2 541C914.3 541 868.7 541 823 541C777.3 541 731.7 541 686 541C640.3 541 594.7 541 548.8 541C503 541 457 541 411.2 541C365.3 541 319.7 541 274 541C228.3 541 182.7 541 137 541C91.3 541 45.7 541 22.8 541L0 541Z" fill="#a2bd22"></path><path d="M0 484L22.8 480.5C45.7 477 91.3 470 137 467.5C182.7 465 228.3 467 274 470.2C319.7 473.3 365.3 477.7 411.2 481.2C457 484.7 503 487.3 548.8 484.3C594.7 481.3 640.3 472.7 686 466.8C731.7 461 777.3 458 823 457.5C868.7 457 914.3 459 937.2 460L960 461L960 541L937.2 541C914.3 541 868.7 541 823 541C777.3 541 731.7 541 686 541C640.3 541 594.7 541 548.8 541C503 541 457 541 411.2 541C365.3 541 319.7 541 274 541C228.3 541 182.7 541 137 541C91.3 541 45.7 541 22.8 541L0 541Z" fill="#a2bd22"></path><path d="M0 485L22.8 488.2C45.7 491.3 91.3 497.7 137 500.3C182.7 503 228.3 502 274 497.2C319.7 492.3 365.3 483.7 411.2 482.7C457 481.7 503 488.3 548.8 492.7C594.7 497 640.3 499 686 495.8C731.7 492.7 777.3 484.3 823 481C868.7 477.7 914.3 479.3 937.2 480.2L960 481L960 541L937.2 541C914.3 541 868.7 541 823 541C777.3 541 731.7 541 686 541C640.3 541 594.7 541 548.8 541C503 541 457 541 411.2 541C365.3 541 319.7 541 274 541C228.3 541 182.7 541 137 541C91.3 541 45.7 541 22.8 541L0 541Z" fill="#a2bd22"></path><path d="M0 507L22.8 508.7C45.7 510.3 91.3 513.7 137 513.5C182.7 513.3 228.3 509.7 274 507.2C319.7 504.7 365.3 503.3 411.2 505.5C457 507.7 503 513.3 548.8 514.3C594.7 515.3 640.3 511.7 686 512.2C731.7 512.7 777.3 517.3 823 519.2C868.7 521 914.3 520 937.2 519.5L960 519L960 541L937.2 541C914.3 541 868.7 541 823 541C777.3 541 731.7 541 686 541C640.3 541 594.7 541 548.8 541C503 541 457 541 411.2 541C365.3 541 319.7 541 274 541C228.3 541 182.7 541 137 541C91.3 541 45.7 541 22.8 541L0 541Z" fill="#a2bd22"></path></svg>